<?xml version="1.0" encoding="UTF-8"?>
<svg width="260.000000pt" height="260.000000pt" viewBox="0 0 16 16" version="1.1" xmlns="http://www.w3.org/2000/svg" xmlns:xlink="http://www.w3.org/1999/xlink">
    <title>logos/favicon</title>
    <g id="logos/favicon" fill="#000000" stroke="none" stroke-width="1" fill-rule="evenodd">
        <path d="M16,0 L16,16 L0,16 L0,0 L16,0 Z M8.91640073,6.74742768 C7.65327296,6.74742768 6.78081129,7.79445495 6.78081129,9.01613942 C6.78081129,10.2375491 7.66989608,11.2928193 8.93297805,11.2928193 C9.43157991,11.2928193 9.95500196,11.1018137 10.220926,10.6780846 L10.220926,10.6780846 L10.2377781,10.6780846 L10.2377781,11.1516373 L11.749932,11.1516373 L11.749932,6.88879285 L10.2377781,6.88879285 L10.2377781,7.30405017 C9.92175573,6.93023615 9.40675972,6.74742768 8.91640073,6.74742768 Z M4.26843125,4.88595936 L1.83348836,4.88595936 L1.83348836,11.1516373 L3.46223307,11.1516373 L3.46223307,8.74178933 L3.47885619,8.74178933 L5.01605928,11.1516373 L7.04366716,11.1516373 L5.07435467,8.58398422 C5.96362263,8.42599594 6.4453724,7.67809315 6.4453724,6.81387435 C6.4453724,5.47587387 5.50646407,4.88595936 4.26843125,4.88595936 L4.26843125,4.88595936 Z M14.1329906,6.88879285 L12.6206535,6.88879285 L12.6206535,11.1516373 L14.1329906,11.1516373 L14.1329906,6.88879285 Z M9.31525016,8.06038816 C9.93016803,8.06038816 10.2874047,8.50069463 10.2874047,9.02434565 C10.2874047,9.56434502 9.93016803,9.98010607 9.31525016,9.98010607 C8.7002865,9.98010607 8.3430956,9.56434502 8.3430956,9.02434565 C8.3430956,8.50069463 8.7002865,8.06038816 9.31525016,8.06038816 Z M3.61999239,6.1324686 C4.15184048,6.1324686 4.75013523,6.23216149 4.75013523,6.91361762 C4.75013523,7.59502795 4.15184048,7.69476664 3.61999239,7.69476664 L3.61999239,7.69476664 L3.46223307,7.69476664 L3.46223307,6.1324686 Z M13.3769366,4.40402641 C12.9115809,4.40402641 12.5291119,4.78626647 12.5291119,5.2516221 C12.5291119,5.71697773 12.9115809,6.09921779 13.3769366,6.09921779 C13.8422464,6.09921779 14.2243033,5.71697773 14.2243033,5.2516221 C14.2243033,4.78626647 13.8422464,4.40402641 13.3769366,4.40402641 Z"></path>
    </g>
</svg>